<svg xmlns="http://www.w3.org/2000/svg" xmlns:xlink="http://www.w3.org/1999/xlink" width="1080" zoomAndPan="magnify" viewBox="0 0 810 809.999993" height="1080" preserveAspectRatio="xMidYMid meet" version="1.0"><defs><filter x="0%" y="0%" width="100%" height="100%" id="c6d5a1d22a"><feColorMatrix values="0 0 0 0 1 0 0 0 0 1 0 0 0 0 1 0 0 0 1 0" color-interpolation-filters="sRGB"/></filter><g/><mask id="f68e2c4022"><g filter="url(#c6d5a1d22a)"><rect x="-81" width="972" fill="#000000" y="-80.999999" height="971.999992" fill-opacity="0.0784"/></g></mask><clipPath id="cd5c170866"><rect x="0" width="744" y="0" height="495"/></clipPath></defs><g mask="url(#f68e2c4022)"><g transform="matrix(1, 0, 0, 1, 26, 157)"><g clip-path="url(#cd5c170866)"><g fill="#b80e0e" fill-opacity="1"><g transform="translate(0.424062, 371.0533)"><g><path d="M 402.03125 -346.71875 L 402.03125 -342.265625 C 401.375 -342.265625 400.382812 -341.769531 399.0625 -340.78125 C 397.75 -339.789062 396.429688 -337.976562 395.109375 -335.34375 C 393.796875 -332.71875 392.726562 -328.929688 391.90625 -323.984375 C 391.082031 -319.046875 390.671875 -312.460938 390.671875 -304.234375 L 390.671875 -42.46875 C 390.671875 -34.570312 391.082031 -28.070312 391.90625 -22.96875 C 392.726562 -17.863281 393.796875 -13.992188 395.109375 -11.359375 C 396.429688 -8.722656 397.75 -6.910156 399.0625 -5.921875 C 400.382812 -4.929688 401.375 -4.4375 402.03125 -4.4375 L 402.03125 0 L 343.75 0 L 343.75 -4.4375 C 344.40625 -4.4375 345.390625 -4.929688 346.703125 -5.921875 C 348.023438 -6.910156 349.257812 -8.722656 350.40625 -11.359375 C 351.5625 -13.992188 352.632812 -17.863281 353.625 -22.96875 C 354.613281 -28.070312 355.109375 -34.570312 355.109375 -42.46875 L 355.109375 -336.34375 L 206.9375 -29.140625 L 220.765625 0 L 181.75 0 L 38.03125 -298.796875 L 38.03125 -81 C 38.03125 -69.476562 38.6875 -59.023438 40 -49.640625 C 41.320312 -40.253906 42.882812 -32.1875 44.6875 -25.4375 C 46.5 -18.6875 48.472656 -13.5 50.609375 -9.875 C 52.753906 -6.25 54.816406 -4.4375 56.796875 -4.4375 L 56.796875 0 L 14.8125 0 L 14.8125 -4.4375 C 16.789062 -4.4375 18.847656 -6.25 20.984375 -9.875 C 23.128906 -13.5 25.109375 -18.6875 26.921875 -25.4375 C 28.734375 -32.1875 30.296875 -40.253906 31.609375 -49.640625 C 32.921875 -59.023438 33.578125 -69.476562 33.578125 -81 L 33.578125 -307.6875 L 14.8125 -346.71875 L 53.828125 -346.71875 L 204.46875 -34.078125 L 355.109375 -346.71875 Z M 402.03125 -346.71875 "/></g></g></g><g fill="#b80e0e" fill-opacity="1"><g transform="translate(396.035077, 371.0533)"><g><path d="M 21.234375 -128.90625 C 14.984375 -152.28125 13.503906 -175.488281 16.796875 -198.53125 C 20.085938 -221.582031 27.328125 -242.820312 38.515625 -262.25 C 49.710938 -281.675781 64.445312 -298.550781 82.71875 -312.875 C 101 -327.195312 121.828125 -337.488281 145.203125 -343.75 C 161.992188 -348.351562 178.785156 -350.328125 195.578125 -349.671875 C 212.367188 -349.015625 228.5 -346.21875 243.96875 -341.28125 C 259.445312 -336.34375 274.019531 -329.34375 287.6875 -320.28125 C 301.351562 -311.226562 313.453125 -300.445312 323.984375 -287.9375 L 312.625 -244.46875 L 308.1875 -244.46875 C 300.613281 -259.613281 291.226562 -274.019531 280.03125 -287.6875 C 268.84375 -301.351562 256.332031 -312.796875 242.5 -322.015625 C 228.664062 -331.234375 213.597656 -337.65625 197.296875 -341.28125 C 181.003906 -344.90625 163.96875 -344.410156 146.1875 -339.796875 C 124.789062 -334.203125 107.175781 -324.160156 93.34375 -309.671875 C 79.519531 -295.179688 68.984375 -278.46875 61.734375 -259.53125 C 54.492188 -240.601562 50.460938 -220.4375 49.640625 -199.03125 C 48.816406 -177.632812 51.035156 -157.390625 56.296875 -138.296875 C 63.546875 -110.628906 75.070312 -87.578125 90.875 -69.140625 C 106.675781 -50.703125 124.375 -36.707031 143.96875 -27.15625 C 163.5625 -17.613281 183.972656 -12.429688 205.203125 -11.609375 C 226.441406 -10.785156 246.445312 -14.320312 265.21875 -22.21875 C 283.988281 -30.125 300.367188 -42.222656 314.359375 -58.515625 C 328.359375 -74.816406 337.828125 -95.148438 342.765625 -119.515625 L 346.71875 -118.53125 C 341.445312 -91.863281 330.828125 -69.554688 314.859375 -51.609375 C 298.890625 -33.660156 280.117188 -20.320312 258.546875 -11.59375 C 236.984375 -2.875 213.9375 1.316406 189.40625 0.984375 C 164.875 0.660156 141.410156 -4.351562 119.015625 -14.0625 C 96.628906 -23.78125 76.628906 -38.1875 59.015625 -57.28125 C 41.398438 -76.382812 28.804688 -100.257812 21.234375 -128.90625 Z M 21.234375 -128.90625 "/></g></g></g></g></g></g></svg>