<svg xmlns="http://www.w3.org/2000/svg" xmlns:xlink="http://www.w3.org/1999/xlink" width="458" zoomAndPan="magnify" viewBox="0 0 343.5 269.999989" height="360" preserveAspectRatio="xMidYMid meet" version="1.0"><defs><filter x="0%" y="0%" width="100%" height="100%" id="a13fad14ff"><feColorMatrix values="0 0 0 0 1 0 0 0 0 1 0 0 0 0 1 0 0 0 1 0" color-interpolation-filters="sRGB"/></filter><clipPath id="3d6d6acc9f"><path d="M 83 0.195312 L 261 0.195312 L 261 269.804688 L 83 269.804688 Z M 83 0.195312 " clip-rule="nonzero"/></clipPath><mask id="9d17b5221e"><g filter="url(#a13fad14ff)"><rect x="-34.35" width="412.2" fill="#000000" y="-26.999999" height="323.999987" fill-opacity="0.2"/></g></mask><clipPath id="abb8efb932"><path d="M 0.324219 0.195312 L 177.324219 0.195312 L 177.324219 171 L 0.324219 171 Z M 0.324219 0.195312 " clip-rule="nonzero"/></clipPath><clipPath id="0f2603f2f0"><path d="M 121 0.195312 L 177.324219 0.195312 L 177.324219 57 L 121 57 Z M 121 0.195312 " clip-rule="nonzero"/></clipPath><clipPath id="88a60a2840"><path d="M 45 188 L 100 188 L 100 269.804688 L 45 269.804688 Z M 45 188 " clip-rule="nonzero"/></clipPath><clipPath id="684c16497f"><rect x="0" width="178" y="0" height="270"/></clipPath></defs><g clip-path="url(#3d6d6acc9f)"><g mask="url(#9d17b5221e)"><g transform="matrix(1, 0, 0, 1, 83, 0.000000000000011158)"><g clip-path="url(#684c16497f)"><g clip-path="url(#abb8efb932)"><path fill="#000000" d="M 4.355469 170.855469 C 2.101562 170.855469 0.277344 169.03125 0.277344 166.769531 L 0.277344 4.765625 C 0.277344 2.515625 2.101562 0.6875 4.355469 0.6875 L 125.519531 0.6875 C 126.609375 0.6875 127.648438 1.117188 128.410156 1.882812 L 175.824219 49.296875 C 176.585938 50.058594 177.011719 51.101562 177.011719 52.1875 L 177.011719 164.0625 C 177.011719 166.3125 175.183594 168.136719 172.933594 168.136719 C 170.671875 168.136719 168.84375 166.3125 168.84375 164.0625 L 168.84375 53.867188 L 123.824219 8.847656 L 8.441406 8.847656 L 8.441406 166.765625 C 8.441406 169.023438 6.617188 170.851562 4.355469 170.851562 " fill-opacity="1" fill-rule="nonzero"/></g><g clip-path="url(#0f2603f2f0)"><path fill="#000000" d="M 129.609375 48.101562 L 163.074219 48.101562 L 129.609375 14.621094 Z M 172.933594 56.261719 L 125.519531 56.261719 C 123.269531 56.261719 121.441406 54.4375 121.441406 52.1875 L 121.441406 4.765625 C 121.441406 3.113281 122.433594 1.625 123.957031 0.992188 C 125.484375 0.367188 127.238281 0.714844 128.410156 1.882812 L 175.824219 49.296875 C 176.984375 50.460938 177.335938 52.222656 176.707031 53.746094 C 176.066406 55.269531 174.578125 56.261719 172.933594 56.261719 " fill-opacity="1" fill-rule="nonzero"/></g><path fill="#000000" d="M 144.320312 136.527344 L 32.964844 136.527344 C 30.703125 136.527344 28.878906 134.699219 28.878906 132.453125 C 28.878906 130.203125 30.703125 128.367188 32.964844 128.367188 L 144.320312 128.367188 C 146.582031 128.367188 148.410156 130.203125 148.410156 132.453125 C 148.410156 134.699219 146.582031 136.527344 144.320312 136.527344 " fill-opacity="1" fill-rule="nonzero"/><path fill="#000000" d="M 144.320312 110.851562 L 32.964844 110.851562 C 30.703125 110.851562 28.878906 109.027344 28.878906 106.777344 C 28.878906 104.515625 30.703125 102.691406 32.964844 102.691406 L 144.320312 102.691406 C 146.582031 102.691406 148.410156 104.515625 148.410156 106.777344 C 148.410156 109.027344 146.582031 110.851562 144.320312 110.851562 " fill-opacity="1" fill-rule="nonzero"/><path fill="#000000" d="M 144.320312 85.175781 L 32.964844 85.175781 C 30.703125 85.175781 28.878906 83.351562 28.878906 81.089844 C 28.878906 78.84375 30.703125 77.015625 32.964844 77.015625 L 144.320312 77.015625 C 146.582031 77.015625 148.410156 78.84375 148.410156 81.089844 C 148.410156 83.351562 146.582031 85.175781 144.320312 85.175781 " fill-opacity="1" fill-rule="nonzero"/><path fill="#000000" d="M 158.4375 246.164062 L 146.535156 246.164062 C 145.09375 246.164062 143.777344 245.402344 143.039062 244.183594 L 117.0625 200.929688 C 115.9375 199.046875 116.492188 196.601562 118.34375 195.40625 L 136.746094 183.511719 C 137.398438 183.089844 138.175781 182.859375 138.960938 182.859375 L 158.4375 182.859375 C 160.691406 182.859375 162.527344 184.683594 162.527344 186.945312 C 162.527344 189.195312 160.691406 191.019531 158.4375 191.019531 L 140.171875 191.019531 L 126.101562 200.121094 L 148.84375 238.003906 L 158.4375 238.003906 C 160.691406 238.003906 162.527344 239.828125 162.527344 242.078125 C 162.527344 244.328125 160.691406 246.164062 158.4375 246.164062 " fill-opacity="1" fill-rule="nonzero"/><path fill="#000000" d="M 147.273438 246.164062 L 125.980469 246.164062 C 124.816406 246.164062 123.730469 245.667969 122.953125 244.824219 L 97.171875 216.402344 C 95.5625 214.625 92.792969 214.480469 91.003906 216.039062 L 89.878906 217.03125 C 82.617188 223.378906 71.972656 223.511719 64.554688 217.335938 C 61.253906 214.578125 60.792969 209.632812 63.527344 206.320312 L 77.054688 189.96875 C 82.644531 183.222656 92.660156 180.972656 100.609375 184.769531 L 122.324219 195.152344 C 124.359375 196.121094 125.21875 198.5625 124.25 200.59375 C 123.28125 202.625 120.835938 203.480469 118.804688 202.515625 L 97.089844 192.128906 C 92.453125 189.929688 86.609375 191.222656 83.34375 195.164062 L 69.832031 211.519531 C 74.089844 214.652344 80.269531 214.578125 84.492188 210.890625 L 85.617188 209.898438 C 90.761719 205.414062 98.660156 205.886719 103.222656 210.925781 L 127.792969 238.003906 L 147.273438 238.003906 C 149.523438 238.003906 151.351562 239.828125 151.351562 242.078125 C 151.351562 244.328125 149.523438 246.164062 147.273438 246.164062 " fill-opacity="1" fill-rule="nonzero"/><g clip-path="url(#88a60a2840)"><path fill="#000000" d="M 92.296875 266.96875 L 92.308594 266.980469 Z M 94.644531 269.953125 L 87.496094 269.953125 C 84.167969 269.953125 80.914062 268.792969 78.3125 266.703125 L 46.636719 242.054688 C 45.585938 241.246094 45.003906 239.976562 45.066406 238.644531 L 47.230469 192.15625 C 47.339844 189.980469 49.128906 188.261719 51.308594 188.261719 L 80.527344 188.261719 C 82.789062 188.261719 84.613281 190.101562 84.613281 192.347656 C 84.613281 194.597656 82.789062 196.421875 80.527344 196.421875 L 55.203125 196.421875 L 53.316406 236.917969 L 83.394531 260.308594 C 84.589844 261.273438 86.03125 261.78125 87.496094 261.78125 L 87.761719 261.78125 L 78.527344 251.253906 C 77.054688 249.546875 77.222656 246.972656 78.917969 245.5 C 80.609375 244.023438 83.199219 244.183594 84.6875 245.875 L 98.441406 261.601562 C 99.738281 263.074219 100.050781 265.191406 99.242188 266.992188 C 98.429688 268.78125 96.628906 269.953125 94.644531 269.953125 " fill-opacity="1" fill-rule="nonzero"/></g><path fill="#000000" d="M 95.671875 268.867188 C 93.882812 268.867188 92.25 267.679688 91.742188 265.867188 C 91.136719 263.703125 92.40625 261.457031 94.582031 260.851562 L 102.882812 258.554688 L 91.4375 244.664062 C 90.011719 242.9375 90.265625 240.363281 91.996094 238.921875 C 93.738281 237.496094 96.3125 237.738281 97.742188 239.492188 L 110.785156 255.300781 C 112.089844 256.898438 112.585938 259.039062 112.078125 261.042969 C 111.582031 263.039062 110.140625 264.707031 108.242188 265.503906 L 96.761719 268.71875 C 96.398438 268.816406 96.035156 268.867188 95.671875 268.867188 " fill-opacity="1" fill-rule="nonzero"/><path fill="#000000" d="M 108.667969 263.460938 C 107.007812 263.460938 105.460938 262.457031 104.84375 260.816406 C 104.042969 258.710938 105.109375 256.355469 107.226562 255.570312 L 114.28125 252.910156 L 103.1875 236.90625 C 101.867188 235.066406 102.277344 232.515625 104.105469 231.199219 C 105.933594 229.882812 108.484375 230.292969 109.804688 232.117188 L 121.042969 247.675781 C 122.433594 249.597656 122.964844 252.039062 122.484375 254.359375 C 122 256.691406 120.558594 258.734375 118.515625 259.957031 C 118.308594 260.078125 118.089844 260.1875 117.859375 260.28125 L 110.105469 263.195312 C 109.621094 263.378906 109.136719 263.460938 108.667969 263.460938 " fill-opacity="1" fill-rule="nonzero"/><path fill="#000000" d="M 118.394531 258.058594 C 116.566406 258.058594 114.910156 256.8125 114.4375 254.964844 C 113.894531 252.777344 115.222656 250.5625 117.414062 250.019531 L 124.382812 248.28125 C 126.609375 247.433594 128.386719 244.90625 128.386719 242.101562 C 128.386719 239.855469 130.214844 238.015625 132.464844 238.015625 C 134.726562 238.015625 136.554688 239.828125 136.554688 242.078125 C 136.554688 248.316406 132.621094 253.9375 126.765625 256.0625 L 119.386719 257.925781 C 119.058594 258.011719 118.71875 258.058594 118.394531 258.058594 " fill-opacity="1" fill-rule="nonzero"/><path fill="#000000" d="M 49.140625 242.925781 L 18.847656 242.925781 C 16.597656 242.925781 14.757812 241.085938 14.757812 238.839844 C 14.757812 236.589844 16.597656 234.765625 18.847656 234.765625 L 45.246094 234.765625 L 47.183594 193.039062 L 46.382812 191.019531 L 18.847656 191.019531 C 16.597656 191.019531 14.757812 189.191406 14.757812 186.945312 C 14.757812 184.683594 16.597656 182.859375 18.847656 182.859375 L 49.140625 182.859375 C 50.8125 182.859375 52.3125 183.875 52.929688 185.421875 L 55.09375 190.835938 C 55.3125 191.382812 55.421875 191.960938 55.386719 192.542969 L 53.21875 239.03125 C 53.121094 241.207031 51.332031 242.925781 49.140625 242.925781 " fill-opacity="1" fill-rule="nonzero"/></g></g></g></g></svg>