<svg xmlns="http://www.w3.org/2000/svg" xmlns:xlink="http://www.w3.org/1999/xlink" width="50" zoomAndPan="magnify" viewBox="0 0 37.5 37.499999" height="50" preserveAspectRatio="xMidYMid meet" version="1.0"><defs><clipPath id="d6de992664"><path d="M 0 14 L 36 14 L 36 37.007812 L 0 37.007812 Z M 0 14 " clip-rule="nonzero"/></clipPath></defs><g clip-path="url(#d6de992664)"><path fill="#ffffff" d="M 28.777344 15.59375 L 18.011719 26.316406 C 17.992188 26.335938 17.964844 26.347656 17.9375 26.347656 C 17.90625 26.347656 17.882812 26.335938 17.859375 26.316406 L 7.140625 15.601562 C 6.359375 14.816406 5.414062 14.421875 4.304688 14.425781 L 4.300781 14.425781 C 3.90625 14.425781 3.515625 14.484375 3.136719 14.597656 C 2.757812 14.710938 2.402344 14.878906 2.074219 15.097656 C 1.746094 15.316406 1.453125 15.578125 1.203125 15.882812 C 0.949219 16.1875 0.75 16.523438 0.597656 16.890625 C 0.445312 17.253906 0.347656 17.632812 0.308594 18.023438 C 0.269531 18.417969 0.289062 18.808594 0.367188 19.195312 C 0.441406 19.582031 0.574219 19.949219 0.761719 20.300781 C 0.945312 20.648438 1.179688 20.960938 1.460938 21.242188 L 12.832031 32.609375 L 17.421875 37.132812 C 17.578125 37.289062 17.765625 37.363281 17.988281 37.363281 C 18.207031 37.363281 18.394531 37.285156 18.546875 37.132812 L 34.460938 21.242188 C 34.644531 21.054688 34.8125 20.855469 34.957031 20.636719 C 35.105469 20.417969 35.226562 20.1875 35.328125 19.945312 C 35.429688 19.703125 35.503906 19.453125 35.554688 19.195312 C 35.605469 18.9375 35.632812 18.675781 35.632812 18.414062 C 35.632812 18.152344 35.605469 17.890625 35.554688 17.632812 C 35.5 17.378906 35.425781 17.128906 35.324219 16.886719 C 35.222656 16.644531 35.097656 16.414062 34.953125 16.195312 C 34.804688 15.976562 34.640625 15.773438 34.453125 15.589844 C 34.265625 15.402344 34.0625 15.238281 33.84375 15.09375 C 33.625 14.949219 33.394531 14.824219 33.152344 14.722656 C 32.90625 14.625 32.65625 14.546875 32.398438 14.496094 C 32.140625 14.445312 31.878906 14.421875 31.617188 14.421875 C 31.351562 14.421875 31.089844 14.445312 30.832031 14.496094 C 30.574219 14.550781 30.324219 14.625 30.082031 14.726562 C 29.835938 14.824219 29.605469 14.949219 29.386719 15.09375 C 29.167969 15.242188 28.964844 15.40625 28.777344 15.59375 Z M 33.328125 20.117188 L 17.980469 35.449219 L 13.957031 31.480469 L 2.589844 20.117188 C 2.246094 19.773438 2.027344 19.363281 1.933594 18.886719 C 1.835938 18.410156 1.882812 17.945312 2.070312 17.5 C 2.257812 17.050781 2.554688 16.691406 2.960938 16.421875 C 3.367188 16.152344 3.8125 16.015625 4.300781 16.015625 L 4.304688 16.015625 C 4.972656 16.015625 5.542969 16.25 6.011719 16.722656 L 16.730469 27.4375 C 17.0625 27.773438 17.464844 27.9375 17.933594 27.9375 L 17.9375 27.9375 C 18.40625 27.9375 18.808594 27.773438 19.140625 27.441406 L 29.90625 16.714844 C 30.132812 16.492188 30.394531 16.316406 30.691406 16.195312 C 30.988281 16.074219 31.296875 16.015625 31.617188 16.015625 C 31.933594 16.015625 32.242188 16.074219 32.539062 16.195312 C 32.835938 16.320312 33.097656 16.492188 33.320312 16.71875 C 33.546875 16.941406 33.722656 17.203125 33.847656 17.496094 C 33.96875 17.792969 34.03125 18.097656 34.03125 18.417969 C 34.03125 18.734375 33.972656 19.042969 33.851562 19.335938 C 33.730469 19.632812 33.554688 19.890625 33.328125 20.117188 Z M 33.328125 20.117188 " fill-opacity="1" fill-rule="nonzero"/></g><path fill="#ffffff" d="M 28.777344 1.625 L 18.011719 12.347656 C 17.960938 12.398438 17.910156 12.398438 17.859375 12.347656 L 7.140625 1.632812 C 6.359375 0.847656 5.414062 0.457031 4.304688 0.457031 L 4.300781 0.457031 C 3.90625 0.457031 3.515625 0.515625 3.136719 0.628906 C 2.757812 0.746094 2.402344 0.910156 2.074219 1.128906 C 1.746094 1.347656 1.453125 1.613281 1.203125 1.917969 C 0.949219 2.222656 0.75 2.554688 0.597656 2.921875 C 0.445312 3.285156 0.347656 3.664062 0.308594 4.058594 C 0.269531 4.449219 0.289062 4.839844 0.367188 5.226562 C 0.441406 5.613281 0.574219 5.984375 0.761719 6.332031 C 0.949219 6.679688 1.179688 6.992188 1.460938 7.273438 L 12.832031 18.640625 L 17.421875 23.167969 C 17.578125 23.320312 17.765625 23.398438 17.988281 23.394531 C 18.207031 23.394531 18.394531 23.316406 18.546875 23.164062 L 34.460938 7.273438 C 34.644531 7.085938 34.8125 6.886719 34.957031 6.667969 C 35.101562 6.449219 35.226562 6.21875 35.328125 5.976562 C 35.425781 5.734375 35.503906 5.484375 35.554688 5.226562 C 35.605469 4.96875 35.628906 4.707031 35.628906 4.445312 C 35.628906 4.183594 35.601562 3.925781 35.550781 3.667969 C 35.5 3.410156 35.421875 3.160156 35.320312 2.917969 C 35.222656 2.675781 35.097656 2.445312 34.949219 2.226562 C 34.804688 2.011719 34.636719 1.808594 34.453125 1.625 C 34.265625 1.4375 34.0625 1.273438 33.84375 1.128906 C 33.625 0.980469 33.394531 0.859375 33.148438 0.757812 C 32.90625 0.65625 32.65625 0.582031 32.398438 0.53125 C 32.140625 0.480469 31.878906 0.453125 31.613281 0.453125 C 31.351562 0.453125 31.089844 0.480469 30.832031 0.53125 C 30.574219 0.582031 30.324219 0.660156 30.082031 0.757812 C 29.835938 0.859375 29.605469 0.984375 29.386719 1.128906 C 29.167969 1.273438 28.964844 1.4375 28.777344 1.625 Z M 33.328125 6.152344 L 17.980469 21.480469 L 13.957031 17.515625 L 2.589844 6.152344 C 2.246094 5.804688 2.027344 5.394531 1.933594 4.917969 C 1.835938 4.441406 1.882812 3.980469 2.070312 3.53125 C 2.257812 3.082031 2.554688 2.722656 2.960938 2.453125 C 3.367188 2.183594 3.8125 2.046875 4.300781 2.046875 L 4.304688 2.046875 C 4.972656 2.046875 5.542969 2.28125 6.011719 2.757812 L 16.730469 13.46875 C 17.066406 13.796875 17.46875 13.960938 17.9375 13.96875 C 18.410156 13.972656 18.808594 13.804688 19.140625 13.472656 L 29.90625 2.75 C 30.132812 2.523438 30.394531 2.351562 30.691406 2.226562 C 30.988281 2.105469 31.296875 2.042969 31.617188 2.042969 C 31.9375 2.042969 32.246094 2.105469 32.539062 2.226562 C 32.835938 2.347656 33.097656 2.523438 33.324219 2.746094 C 33.550781 2.972656 33.726562 3.234375 33.847656 3.527344 C 33.972656 3.820312 34.035156 4.128906 34.035156 4.449219 C 34.035156 4.765625 33.972656 5.074219 33.851562 5.367188 C 33.730469 5.664062 33.554688 5.925781 33.328125 6.152344 Z M 33.328125 6.152344 " fill-opacity="1" fill-rule="nonzero"/></svg>