<svg xmlns="http://www.w3.org/2000/svg" xmlns:xlink="http://www.w3.org/1999/xlink" width="100" zoomAndPan="magnify" viewBox="0 0 75 74.999997" height="100" preserveAspectRatio="xMidYMid meet" version="1.0"><defs><clipPath id="ed81af7f17"><path d="M 9.375 0 L 65.625 0 L 65.625 75 L 9.375 75 Z M 9.375 0 " clip-rule="nonzero"/></clipPath></defs><g clip-path="url(#ed81af7f17)"><path fill="#ffffff" d="M 59.378906 68.746094 L 15.628906 68.746094 L 15.628906 6.253906 L 40.628906 6.253906 L 40.628906 18.75 C 40.628906 22.199219 43.425781 25.003906 46.875 25.003906 L 59.378906 25.003906 Z M 46.875 6.253906 L 59.378906 18.75 L 46.875 18.75 Z M 63.792969 14.328125 L 51.296875 1.832031 C 50.125 0.660156 48.527344 0 46.875 0 L 15.628906 0 C 12.179688 0 9.375 2.804688 9.375 6.253906 L 9.375 68.746094 C 9.375 72.195312 12.179688 75 15.628906 75 L 59.378906 75 C 62.820312 75 65.625 72.195312 65.625 68.746094 L 65.625 18.75 C 65.625 17.097656 64.964844 15.5 63.792969 14.328125 " fill-opacity="1" fill-rule="nonzero"/></g><path fill="#ffffff" d="M 50.003906 40.628906 L 43.746094 40.628906 L 43.746094 37.5 L 50.003906 37.5 Z M 43.746094 59.371094 L 43.746094 56.25 L 50.003906 56.25 L 50.003906 59.371094 Z M 25.003906 59.371094 L 25.003906 56.25 L 40.628906 56.25 L 40.628906 59.371094 Z M 25.003906 50.003906 L 40.628906 50.003906 L 40.628906 53.121094 L 25.003906 53.121094 Z M 50.003906 50.003906 L 50.003906 53.121094 L 43.746094 53.121094 L 43.746094 50.003906 Z M 43.746094 46.875 L 43.746094 43.746094 L 50.003906 43.746094 L 50.003906 46.875 Z M 25.003906 43.746094 L 40.628906 43.746094 L 40.628906 46.875 L 25.003906 46.875 Z M 25.003906 37.5 L 40.628906 37.5 L 40.628906 40.628906 L 25.003906 40.628906 Z M 21.871094 34.378906 L 21.871094 62.503906 L 53.121094 62.503906 L 53.121094 34.378906 L 21.871094 34.378906 " fill-opacity="1" fill-rule="nonzero"/><path fill="#ffffff" d="M 29.691406 25.003906 L 26.558594 25.003906 C 25.703125 25.003906 25.003906 25.703125 25.003906 26.558594 C 25.003906 27.417969 25.703125 28.125 26.558594 28.125 L 28.125 28.125 L 28.125 29.691406 C 28.125 30.546875 28.832031 31.246094 29.691406 31.246094 C 30.546875 31.246094 31.246094 30.546875 31.246094 29.691406 L 31.246094 27.839844 C 33.066406 27.191406 34.378906 25.46875 34.378906 23.4375 C 34.378906 20.855469 32.273438 18.75 29.691406 18.75 C 28.832031 18.75 28.125 18.042969 28.125 17.183594 C 28.125 16.328125 28.832031 15.628906 29.691406 15.628906 L 32.8125 15.628906 C 33.671875 15.628906 34.378906 14.921875 34.378906 14.0625 C 34.378906 13.203125 33.671875 12.496094 32.8125 12.496094 L 31.246094 12.496094 L 31.246094 10.941406 C 31.246094 10.082031 30.546875 9.375 29.691406 9.375 C 28.832031 9.375 28.125 10.082031 28.125 10.941406 L 28.125 12.789062 C 26.308594 13.4375 25.003906 15.15625 25.003906 17.183594 C 25.003906 19.773438 27.105469 21.871094 29.691406 21.871094 C 30.546875 21.871094 31.246094 22.578125 31.246094 23.4375 C 31.246094 24.296875 30.546875 25.003906 29.691406 25.003906 " fill-opacity="1" fill-rule="nonzero"/></svg>