<svg xmlns="http://www.w3.org/2000/svg" xmlns:xlink="http://www.w3.org/1999/xlink" width="100" zoomAndPan="magnify" viewBox="0 0 75 74.999997" height="100" preserveAspectRatio="xMidYMid meet" version="1.0"><defs><clipPath id="f950f8c0a0"><path d="M 1.6875 0 L 73.6875 0 L 73.6875 75 L 1.6875 75 Z M 1.6875 0 " clip-rule="nonzero"/></clipPath></defs><path fill="#ffffff" d="M 40.164062 22.078125 L 58.476562 22.078125 C 59.902344 22.078125 61.085938 20.902344 61.085938 19.476562 C 61.085938 18.058594 59.820312 16.957031 58.476562 16.957031 L 40.164062 16.957031 C 38.730469 16.957031 37.546875 18.136719 37.546875 19.554688 C 37.546875 20.980469 38.730469 22.078125 40.164062 22.078125 " fill-opacity="1" fill-rule="nonzero"/><path fill="#ffffff" d="M 19.152344 25.316406 C 19.628906 25.867188 20.34375 26.109375 21.054688 26.109375 C 21.769531 26.109375 22.480469 25.789062 22.953125 25.316406 L 30.566406 17.113281 C 31.523438 16.085938 31.441406 14.433594 30.410156 13.484375 C 29.378906 12.539062 27.714844 12.617188 26.761719 13.644531 L 21.054688 19.796875 L 18.910156 17.511719 C 17.960938 16.480469 16.300781 16.40625 15.265625 17.351562 C 14.238281 18.296875 14.160156 19.957031 15.109375 20.980469 L 19.152344 25.316406 " fill-opacity="1" fill-rule="nonzero"/><path fill="#ffffff" d="M 40.164062 40.0625 L 58.476562 40.0625 C 59.902344 40.0625 61.085938 38.878906 61.085938 37.460938 C 61.085938 36.042969 59.902344 34.855469 58.476562 34.855469 L 40.164062 34.855469 C 38.730469 34.855469 37.546875 36.042969 37.546875 37.460938 C 37.546875 38.878906 38.730469 40.0625 40.164062 40.0625 " fill-opacity="1" fill-rule="nonzero"/><path fill="#ffffff" d="M 19.152344 43.300781 C 19.628906 43.84375 20.34375 44.085938 21.054688 44.085938 C 21.769531 44.085938 22.480469 43.765625 22.953125 43.300781 L 30.566406 35.097656 C 31.523438 34.070312 31.441406 32.414062 30.410156 31.46875 C 29.378906 30.523438 27.714844 30.601562 26.761719 31.628906 L 21.054688 37.773438 L 18.910156 35.488281 C 17.960938 34.464844 16.300781 34.382812 15.265625 35.328125 C 14.238281 36.273438 14.160156 37.933594 15.109375 38.957031 L 19.152344 43.300781 " fill-opacity="1" fill-rule="nonzero"/><path fill="#ffffff" d="M 40.164062 57.96875 L 58.476562 57.96875 C 59.902344 57.96875 61.085938 56.78125 61.085938 55.363281 C 61.085938 53.945312 59.902344 52.761719 58.476562 52.761719 L 40.164062 52.761719 C 38.730469 52.761719 37.546875 53.945312 37.546875 55.363281 C 37.546875 56.863281 38.730469 57.96875 40.164062 57.96875 " fill-opacity="1" fill-rule="nonzero"/><path fill="#ffffff" d="M 19.152344 61.277344 C 19.628906 61.828125 20.34375 62.070312 21.054688 62.070312 C 21.769531 62.070312 22.480469 61.75 22.953125 61.277344 L 30.566406 53.074219 C 31.523438 52.046875 31.441406 50.398438 30.410156 49.453125 C 29.378906 48.5 27.714844 48.578125 26.761719 49.605469 L 21.054688 55.757812 L 18.910156 53.464844 C 17.960938 52.449219 16.300781 52.363281 15.265625 53.3125 C 14.238281 54.257812 14.160156 55.910156 15.109375 56.941406 L 19.152344 61.277344 " fill-opacity="1" fill-rule="nonzero"/><g clip-path="url(#f950f8c0a0)"><path fill="#ffffff" d="M 68.460938 69.792969 L 6.945312 69.792969 L 6.945312 5.125 L 68.460938 5.125 Z M 71 0 L 4.40625 0 C 2.980469 0 1.789062 1.183594 1.789062 2.601562 L 1.789062 72.398438 C 1.789062 73.820312 2.980469 75 4.40625 75 L 71 75 C 72.425781 75 73.617188 73.820312 73.617188 72.398438 L 73.617188 2.601562 C 73.617188 1.183594 72.425781 0 71 0 " fill-opacity="1" fill-rule="nonzero"/></g></svg>