<svg xmlns="http://www.w3.org/2000/svg" xmlns:xlink="http://www.w3.org/1999/xlink" width="100" zoomAndPan="magnify" viewBox="0 0 75 74.999997" height="100" preserveAspectRatio="xMidYMid meet" version="1.0"><defs><clipPath id="9ef32fb1e7"><path d="M 0 0 L 75 0 L 75 74.25 L 0 74.25 Z M 0 0 " clip-rule="nonzero"/></clipPath></defs><path fill="#ffffff" d="M 35.316406 17.699219 L 40.417969 17.699219 L 40.417969 21.683594 L 35.316406 21.683594 Z M 35.316406 17.699219 " fill-opacity="1" fill-rule="nonzero"/><path fill="#ffffff" d="M 25.113281 17.699219 L 30.214844 17.699219 L 30.214844 21.683594 L 25.113281 21.683594 Z M 25.113281 17.699219 " fill-opacity="1" fill-rule="nonzero"/><path fill="#ffffff" d="M 45.523438 17.699219 L 50.625 17.699219 L 50.625 21.683594 L 45.523438 21.683594 Z M 45.523438 17.699219 " fill-opacity="1" fill-rule="nonzero"/><path fill="#ffffff" d="M 25.113281 29.320312 L 30.214844 29.320312 L 30.214844 33.304688 L 25.113281 33.304688 Z M 25.113281 29.320312 " fill-opacity="1" fill-rule="nonzero"/><path fill="#ffffff" d="M 45.523438 29.320312 L 50.625 29.320312 L 50.625 33.304688 L 45.523438 33.304688 Z M 45.523438 29.320312 " fill-opacity="1" fill-rule="nonzero"/><path fill="#ffffff" d="M 35.316406 29.320312 L 40.417969 29.320312 L 40.417969 33.304688 L 35.316406 33.304688 Z M 35.316406 29.320312 " fill-opacity="1" fill-rule="nonzero"/><path fill="#ffffff" d="M 25.113281 40.945312 L 30.214844 40.945312 L 30.214844 44.929688 L 25.113281 44.929688 Z M 25.113281 40.945312 " fill-opacity="1" fill-rule="nonzero"/><path fill="#ffffff" d="M 35.316406 40.945312 L 40.417969 40.945312 L 40.417969 44.929688 L 35.316406 44.929688 Z M 35.316406 40.945312 " fill-opacity="1" fill-rule="nonzero"/><path fill="#ffffff" d="M 45.523438 40.945312 L 50.625 40.945312 L 50.625 44.929688 L 45.523438 44.929688 Z M 45.523438 40.945312 " fill-opacity="1" fill-rule="nonzero"/><path fill="#ffffff" d="M 25.113281 52.566406 L 30.214844 52.566406 L 30.214844 56.550781 L 25.113281 56.550781 Z M 25.113281 52.566406 " fill-opacity="1" fill-rule="nonzero"/><path fill="#ffffff" d="M 35.316406 52.566406 L 40.417969 52.566406 L 40.417969 56.550781 L 35.316406 56.550781 Z M 35.316406 52.566406 " fill-opacity="1" fill-rule="nonzero"/><path fill="#ffffff" d="M 45.523438 52.566406 L 50.625 52.566406 L 50.625 56.550781 L 45.523438 56.550781 Z M 45.523438 52.566406 " fill-opacity="1" fill-rule="nonzero"/><g clip-path="url(#9ef32fb1e7)"><path fill="#ffffff" d="M 73.664062 65.039062 L 71.914062 65.039062 L 71.914062 35.289062 C 71.914062 34.1875 71.027344 33.296875 69.933594 33.296875 L 58.035156 33.296875 L 58.035156 8.804688 C 58.035156 7.703125 57.148438 6.8125 56.054688 6.8125 L 49.765625 6.8125 L 49.765625 1.988281 C 49.765625 0.886719 48.878906 -0.00390625 47.785156 -0.00390625 L 27.085938 -0.00390625 C 25.992188 -0.00390625 25.105469 0.886719 25.105469 1.988281 L 25.105469 6.8125 L 19.683594 6.8125 C 18.589844 6.8125 17.703125 7.703125 17.703125 8.804688 L 17.703125 33.296875 L 5.804688 33.296875 C 4.710938 33.296875 3.824219 34.1875 3.824219 35.289062 L 3.824219 65.039062 L 2.074219 65.039062 C 0.984375 65.039062 0.0976562 65.929688 0.0976562 67.03125 L 0.0976562 72.261719 C 0.0976562 73.363281 0.984375 74.253906 2.074219 74.253906 L 73.664062 74.253906 C 74.753906 74.253906 75.640625 73.363281 75.640625 72.261719 L 75.640625 67.03125 C 75.640625 65.929688 74.757812 65.039062 73.664062 65.039062 Z M 67.953125 37.28125 L 67.953125 65.039062 L 58.035156 65.039062 L 58.035156 37.28125 Z M 29.0625 3.980469 L 45.804688 3.980469 L 45.804688 6.8125 L 29.0625 6.8125 Z M 21.664062 10.796875 L 54.074219 10.796875 L 54.074219 65.039062 L 21.664062 65.039062 Z M 7.785156 37.28125 L 17.703125 37.28125 L 17.703125 65.039062 L 7.785156 65.039062 Z M 71.683594 70.269531 L 4.054688 70.269531 L 4.054688 69.023438 L 71.683594 69.023438 Z M 71.683594 70.269531 " fill-opacity="1" fill-rule="nonzero"/></g></svg>