<svg xmlns="http://www.w3.org/2000/svg" xmlns:xlink="http://www.w3.org/1999/xlink" width="50" zoomAndPan="magnify" viewBox="0 0 37.5 37.499999" height="50" preserveAspectRatio="xMidYMid meet" version="1.0"><defs><clipPath id="4002e4c8df"><path d="M 0 0 L 37.007812 0 L 37.007812 37.007812 L 0 37.007812 Z M 0 0 " clip-rule="nonzero"/></clipPath></defs><g clip-path="url(#4002e4c8df)"><path fill="#ffffff" d="M 18.710938 -0.0195312 C 8.382812 -0.0195312 -0.0195312 8.382812 -0.0195312 18.710938 C -0.0195312 29.039062 8.382812 37.445312 18.710938 37.445312 C 29.039062 37.445312 37.445312 29.039062 37.445312 18.710938 C 37.445312 8.382812 29.039062 -0.0195312 18.710938 -0.0195312 Z M 23.371094 19.371094 L 20.324219 19.371094 C 20.324219 24.242188 20.324219 30.234375 20.324219 30.234375 L 15.808594 30.234375 C 15.808594 30.234375 15.808594 24.296875 15.808594 19.371094 L 13.660156 19.371094 L 13.660156 15.53125 L 15.808594 15.53125 L 15.808594 13.050781 C 15.808594 11.269531 16.652344 8.492188 20.363281 8.492188 L 23.710938 8.503906 L 23.710938 12.230469 C 23.710938 12.230469 21.675781 12.230469 21.28125 12.230469 C 20.886719 12.230469 20.324219 12.429688 20.324219 13.277344 L 20.324219 15.535156 L 23.765625 15.535156 Z M 23.371094 19.371094 " fill-opacity="1" fill-rule="nonzero"/></g></svg>