<svg xmlns="http://www.w3.org/2000/svg" xmlns:xlink="http://www.w3.org/1999/xlink" width="50" zoomAndPan="magnify" viewBox="0 0 37.5 37.499999" height="50" preserveAspectRatio="xMidYMid meet" version="1.0"><defs><clipPath id="546c5c23d4"><path d="M 0 0 L 37.007812 0 L 37.007812 37.007812 L 0 37.007812 Z M 0 0 " clip-rule="nonzero"/></clipPath></defs><g clip-path="url(#546c5c23d4)"><path fill="#ffffff" d="M 18.75 37.5 C 29.105469 37.5 37.5 29.105469 37.5 18.75 C 37.5 8.394531 29.105469 0 18.75 0 C 8.394531 0 0 8.394531 0 18.75 C 0 29.105469 8.394531 37.5 18.75 37.5 Z M 10.234375 10.773438 L 18.75 17.585938 L 27.265625 10.773438 L 27.511719 10.566406 L 9.988281 10.566406 Z M 28.421875 12.175781 L 28.75 11.902344 L 28.75 26.023438 C 28.75 26.523438 28.34375 26.933594 27.839844 26.933594 L 9.660156 26.933594 C 9.15625 26.933594 8.75 26.523438 8.75 26.023438 L 8.75 11.902344 L 9.078125 12.175781 L 9.089844 12.1875 L 18.183594 19.460938 C 18.515625 19.726562 18.984375 19.726562 19.316406 19.460938 L 28.410156 12.1875 Z M 28.421875 12.175781 " fill-opacity="1" fill-rule="evenodd"/></g></svg>