<svg xmlns="http://www.w3.org/2000/svg" xmlns:xlink="http://www.w3.org/1999/xlink" width="1080" zoomAndPan="magnify" viewBox="0 0 810 809.999993" height="1080" preserveAspectRatio="xMidYMid meet" version="1.0"><defs><g/></defs><g fill="#ffffff" fill-opacity="1"><g transform="translate(103.048755, 474.864862)"><g><path d="M 14.1875 -65.46875 L -29.703125 -71.359375 L -29.796875 -70.921875 L 9.671875 -46.765625 L 7.53125 -36.875 L -38.40625 -31.21875 L -38.5 -30.78125 L 3.90625 -18 L 0.296875 -1.40625 L -71.0625 -23.703125 L -67.234375 -41.34375 L -21.734375 -48.40625 L -60.234375 -73.640625 L -56.421875 -91.28125 L 17.78125 -82.046875 Z M 14.1875 -65.46875 "/></g></g></g><g fill="#ffffff" fill-opacity="1"><g transform="translate(126.655946, 382.44112)"><g><path d="M -44.1875 -76.796875 L -30.953125 -69.984375 L -42.6875 -47.21875 L -29.515625 -40.421875 L -18.265625 -62.234375 L -5.03125 -55.40625 L -16.28125 -33.59375 L -2.96875 -26.734375 L 8.765625 -49.5 L 22 -42.671875 L 2.484375 -4.8125 L -63.703125 -38.9375 Z M -44.1875 -76.796875 "/></g></g></g><g fill="#ffffff" fill-opacity="1"><g transform="translate(156.015455, 326.408127)"><g><path d="M -15.578125 -96.046875 L 20.8125 -64.71875 C 27.738281 -58.757812 31.375 -52.378906 31.71875 -45.578125 C 32.070312 -38.773438 29.144531 -31.769531 22.9375 -24.5625 C 16.726562 -17.351562 10.234375 -13.410156 3.453125 -12.734375 C -3.316406 -12.066406 -10.164062 -14.710938 -17.09375 -20.671875 L -53.484375 -52 L -42.421875 -64.859375 L -9.78125 -36.765625 C -5.226562 -32.847656 -1.445312 -30.84375 1.5625 -30.75 C 4.582031 -30.65625 7.484375 -32.222656 10.265625 -35.453125 C 13.054688 -38.691406 14.179688 -41.796875 13.640625 -44.765625 C 13.097656 -47.734375 10.550781 -51.175781 6 -55.09375 L -26.640625 -83.1875 Z M -15.578125 -96.046875 "/></g></g></g><g fill="#ffffff" fill-opacity="1"><g transform="translate(209.748841, 268.82243)"><g/></g></g><g fill="#ffffff" fill-opacity="1"><g transform="translate(237.854521, 245.433217)"><g><path d="M 33.046875 -34.25 C 35.335938 -35.425781 37.382812 -36.921875 39.1875 -38.734375 C 41 -40.546875 42.25 -42.035156 42.9375 -43.203125 L 43.9375 -45.046875 L 56.96875 -35.484375 C 56.832031 -35.210938 56.644531 -34.84375 56.40625 -34.375 C 56.164062 -33.914062 55.550781 -32.972656 54.5625 -31.546875 C 53.570312 -30.128906 52.4375 -28.753906 51.15625 -27.421875 C 49.875 -26.085938 48.085938 -24.5625 45.796875 -22.84375 C 43.503906 -21.125 41.019531 -19.578125 38.34375 -18.203125 C 32.195312 -15.035156 25.585938 -13.546875 18.515625 -13.734375 C 11.453125 -13.921875 4.875 -15.796875 -1.21875 -19.359375 C -7.320312 -22.929688 -11.957031 -27.789062 -15.125 -33.9375 C -17.519531 -38.59375 -18.828125 -43.566406 -19.046875 -48.859375 C -19.265625 -54.160156 -18.515625 -59.179688 -16.796875 -63.921875 C -15.078125 -68.671875 -12.492188 -73.082031 -9.046875 -77.15625 C -5.597656 -81.238281 -1.570312 -84.46875 3.03125 -86.84375 C 7.3125 -89.039062 11.519531 -90.554688 15.65625 -91.390625 C 19.800781 -92.234375 22.882812 -92.53125 24.90625 -92.28125 L 27.9375 -91.921875 L 28.125 -75.78125 C 27.582031 -75.90625 26.816406 -76 25.828125 -76.0625 C 24.847656 -76.132812 23.039062 -75.96875 20.40625 -75.5625 C 17.769531 -75.15625 15.304688 -74.363281 13.015625 -73.1875 C 9.367188 -71.3125 6.398438 -69.039062 4.109375 -66.375 C 1.828125 -63.707031 0.34375 -60.976562 -0.34375 -58.1875 C -1.03125 -55.394531 -1.242188 -52.660156 -0.984375 -49.984375 C -0.734375 -47.304688 -0.015625 -44.820312 1.171875 -42.53125 C 3.753906 -37.5 7.957031 -33.957031 13.78125 -31.90625 C 19.613281 -29.851562 26.035156 -30.632812 33.046875 -34.25 Z M 33.046875 -34.25 "/></g></g></g><g fill="#ffffff" fill-opacity="1"><g transform="translate(307.51071, 210.303988)"><g><path d="M -5.296875 -36.953125 C -7.410156 -47.515625 -5.601562 -57.175781 0.125 -65.9375 C 5.851562 -74.695312 13.796875 -80.09375 23.953125 -82.125 C 34.160156 -84.175781 43.566406 -82.273438 52.171875 -76.421875 C 60.773438 -70.566406 66.140625 -62.328125 68.265625 -51.703125 C 70.410156 -41.023438 68.703125 -31.335938 63.140625 -22.640625 C 57.578125 -13.953125 49.570312 -8.554688 39.125 -6.453125 C 28.4375 -4.316406 18.898438 -6.164062 10.515625 -12 C 2.140625 -17.84375 -3.128906 -26.160156 -5.296875 -36.953125 Z M 12.6875 -40.5625 C 13.457031 -36.726562 14.742188 -33.347656 16.546875 -30.421875 C 18.359375 -27.503906 20.957031 -25.25 24.34375 -23.65625 C 27.726562 -22.070312 31.578125 -21.707031 35.890625 -22.5625 C 42.085938 -23.8125 46.335938 -26.875 48.640625 -31.75 C 50.953125 -36.632812 51.503906 -42.082031 50.296875 -48.09375 C 49.097656 -54.050781 46.460938 -58.847656 42.390625 -62.484375 C 38.316406 -66.117188 33.242188 -67.328125 27.171875 -66.109375 C 21.148438 -64.910156 16.929688 -61.84375 14.515625 -56.90625 C 12.097656 -51.96875 11.488281 -46.519531 12.6875 -40.5625 Z M 12.6875 -40.5625 "/></g></g></g><g fill="#ffffff" fill-opacity="1"><g transform="translate(394.971338, 194.537244)"><g><path d="M 26.421875 -44.03125 L 22.296875 2 L 5.40625 0.484375 L 12.0625 -73.6875 L 28.953125 -72.171875 L 54.328125 -23.5 L 54.5 -23.484375 L 58.625 -69.515625 L 75.515625 -68 L 68.859375 6.171875 L 51.96875 4.65625 L 26.59375 -44.015625 Z M 26.421875 -44.03125 "/></g></g></g><g fill="#ffffff" fill-opacity="1"><g transform="translate(479.31718, 204.702082)"><g><path d="M 20.40625 -55.984375 L 25.34375 -70.03125 L 74.75 -52.671875 L 69.8125 -38.625 L 53.125 -44.5 L 33.390625 11.71875 L 17.375 6.109375 L 37.109375 -50.109375 Z M 20.40625 -55.984375 "/></g></g></g><g fill="#ffffff" fill-opacity="1"><g transform="translate(540.139067, 226.354804)"><g><path d="M 76.96875 -38.578125 L 61.3125 40.171875 L 46.046875 30.1875 L 49.609375 14.71875 L 25.90625 -0.828125 L 13.140625 8.609375 L -2.109375 -1.390625 L 63.84375 -47.1875 Z M 52.953125 -0.90625 L 57.875 -23.59375 L 57.71875 -23.6875 L 38.890625 -10.109375 Z M 52.953125 -0.90625 "/></g></g></g><g fill="#ffffff" fill-opacity="1"><g transform="translate(606.972101, 272.085173)"><g><path d="M 59.171875 -45.53125 L 73.53125 -29.4375 C 80.425781 -21.71875 83.675781 -12.765625 83.28125 -2.578125 C 82.894531 7.609375 78.726562 16.242188 70.78125 23.328125 C 62.789062 30.460938 53.722656 33.65625 43.578125 32.90625 C 33.441406 32.164062 24.90625 27.910156 17.96875 20.140625 L 3.609375 4.046875 Z M 26.234375 6.609375 L 27.96875 8.5625 C 32.09375 13.1875 37.023438 15.578125 42.765625 15.734375 C 48.515625 15.890625 53.765625 13.882812 58.515625 9.71875 C 63.234375 5.507812 65.847656 0.535156 66.359375 -5.203125 C 66.878906 -10.953125 65.054688 -16.160156 60.890625 -20.828125 L 59.15625 -22.78125 Z M 26.234375 6.609375 "/></g></g></g><g fill="#ffffff" fill-opacity="1"><g transform="translate(657.650711, 329.670445)"><g><path d="M 34.421875 -14.453125 C 44.097656 -19.171875 53.898438 -19.867188 63.828125 -16.546875 C 73.753906 -13.222656 80.988281 -6.90625 85.53125 2.40625 C 90.09375 11.769531 90.625 21.347656 87.125 31.140625 C 83.632812 40.941406 77.019531 48.21875 67.28125 52.96875 C 57.488281 57.738281 47.679688 58.53125 37.859375 55.34375 C 28.046875 52.164062 20.804688 45.789062 16.140625 36.21875 C 11.367188 26.414062 10.75 16.722656 14.28125 7.140625 C 17.8125 -2.429688 24.523438 -9.628906 34.421875 -14.453125 Z M 42.453125 2.015625 C 38.929688 3.734375 35.984375 5.835938 33.609375 8.328125 C 31.242188 10.816406 29.71875 13.894531 29.03125 17.5625 C 28.351562 21.238281 28.976562 25.054688 30.90625 29.015625 C 33.675781 34.691406 37.710938 38.03125 43.015625 39.03125 C 48.328125 40.03125 53.742188 39.1875 59.265625 36.5 C 64.722656 33.832031 68.691406 30.066406 71.171875 25.203125 C 73.660156 20.347656 73.546875 15.132812 70.828125 9.5625 C 68.140625 4.039062 64.101562 0.738281 58.71875 -0.34375 C 53.332031 -1.4375 47.910156 -0.648438 42.453125 2.015625 Z M 42.453125 2.015625 "/></g></g></g><g fill="#ffffff" fill-opacity="1"><g transform="translate(694.553145, 410.7658)"><g><path d="M 74.234375 -8.109375 L 79.03125 18.078125 C 80.320312 25.117188 79.492188 31.207031 76.546875 36.34375 C 73.597656 41.476562 68.632812 44.679688 61.65625 45.953125 C 56.269531 46.941406 51.503906 46.421875 47.359375 44.390625 C 43.222656 42.367188 40 39.191406 37.6875 34.859375 L 12.03125 65.609375 L 8.140625 44.390625 L 32.984375 16.703125 L 4.046875 22.015625 L 0.984375 5.328125 Z M 44.796875 14.546875 L 45.140625 16.5 C 45.421875 18.039062 45.6875 19.335938 45.9375 20.390625 C 46.195312 21.453125 46.628906 22.628906 47.234375 23.921875 C 47.847656 25.210938 48.554688 26.207031 49.359375 26.90625 C 50.160156 27.613281 51.234375 28.148438 52.578125 28.515625 C 53.929688 28.890625 55.492188 28.914062 57.265625 28.59375 C 59.046875 28.269531 60.5 27.691406 61.625 26.859375 C 62.757812 26.035156 63.578125 25.148438 64.078125 24.203125 C 64.585938 23.265625 64.894531 22.082031 65 20.65625 C 65.101562 19.238281 65.082031 17.988281 64.9375 16.90625 C 64.800781 15.832031 64.59375 14.523438 64.3125 12.984375 L 63.96875 11.03125 Z M 44.796875 14.546875 "/></g></g></g><g fill="#ffffff" fill-opacity="1"><g transform="translate(269.912583, 692.894745)"><g><path d="M 7.953125 -33.90625 C 11.972656 -37.726562 16.929688 -39.640625 22.828125 -39.640625 C 28.734375 -39.640625 33.695312 -37.726562 37.71875 -33.90625 C 41.75 -30.09375 43.765625 -25.367188 43.765625 -19.734375 C 43.765625 -14.097656 41.75 -9.351562 37.71875 -5.5 C 33.695312 -1.644531 28.734375 0.28125 22.828125 0.28125 C 16.929688 0.28125 11.972656 -1.644531 7.953125 -5.5 C 3.929688 -9.351562 1.921875 -14.097656 1.921875 -19.734375 C 1.921875 -25.367188 3.929688 -30.09375 7.953125 -33.90625 Z M 22.890625 -33.671875 C 18.984375 -33.671875 15.640625 -32.320312 12.859375 -29.625 C 10.078125 -26.9375 8.6875 -23.640625 8.6875 -19.734375 C 8.6875 -15.828125 10.085938 -12.507812 12.890625 -9.78125 C 15.691406 -7.0625 19.023438 -5.703125 22.890625 -5.703125 C 26.765625 -5.703125 30.070312 -7.0625 32.8125 -9.78125 C 35.5625 -12.507812 36.9375 -15.828125 36.9375 -19.734375 C 36.9375 -23.640625 35.5625 -26.9375 32.8125 -29.625 C 30.070312 -32.320312 26.765625 -33.671875 22.890625 -33.671875 Z M 22.890625 -33.671875 "/></g></g></g><g fill="#ffffff" fill-opacity="1"><g transform="translate(325.796467, 692.894745)"><g><path d="M 39.421875 0 L 32.875 0 L 11.84375 -28.3125 L 11.84375 0 L 5.1875 0 L 5.1875 -39.46875 L 11.734375 -39.46875 L 32.875 -11.109375 L 32.875 -39.46875 L 39.421875 -39.46875 Z M 39.421875 0 "/></g></g></g><g fill="#ffffff" fill-opacity="1"><g transform="translate(380.665328, 692.894745)"><g><path d="M 11.84375 -6.03125 L 28.921875 -6.03125 L 28.921875 0 L 5.1875 0 L 5.1875 -39.46875 L 11.84375 -39.46875 Z M 11.84375 -6.03125 "/></g></g></g><g fill="#ffffff" fill-opacity="1"><g transform="translate(420.985413, 692.894745)"><g><path d="M 11.84375 0 L 5.1875 0 L 5.1875 -39.46875 L 11.84375 -39.46875 Z M 11.84375 0 "/></g></g></g><g fill="#ffffff" fill-opacity="1"><g transform="translate(448.222877, 692.894745)"><g><path d="M 39.421875 0 L 32.875 0 L 11.84375 -28.3125 L 11.84375 0 L 5.1875 0 L 5.1875 -39.46875 L 11.734375 -39.46875 L 32.875 -11.109375 L 32.875 -39.46875 L 39.421875 -39.46875 Z M 39.421875 0 "/></g></g></g><g fill="#ffffff" fill-opacity="1"><g transform="translate(503.091733, 692.894745)"><g><path d="M 33.390625 -33.5 L 11.84375 -33.5 L 11.84375 -22.84375 L 31.125 -22.84375 L 31.125 -16.859375 L 11.84375 -16.859375 L 11.84375 -5.984375 L 34.0625 -5.984375 L 34.0625 0 L 5.1875 0 L 5.1875 -39.46875 L 33.390625 -39.46875 Z M 33.390625 -33.5 "/></g></g></g><g fill="#ffffff" fill-opacity="1"><g transform="translate(180.066645, 559.557537)"><g><path d="M 250.21875 -215.78125 L 250.21875 -213.015625 C 249.800781 -213.015625 249.179688 -212.707031 248.359375 -212.09375 C 247.546875 -211.476562 246.726562 -210.351562 245.90625 -208.71875 C 245.09375 -207.082031 244.425781 -204.722656 243.90625 -201.640625 C 243.394531 -198.566406 243.140625 -194.472656 243.140625 -189.359375 L 243.140625 -26.4375 C 243.140625 -21.519531 243.394531 -17.472656 243.90625 -14.296875 C 244.425781 -11.117188 245.09375 -8.707031 245.90625 -7.0625 C 246.726562 -5.425781 247.546875 -4.300781 248.359375 -3.6875 C 249.179688 -3.070312 249.800781 -2.765625 250.21875 -2.765625 L 250.21875 0 L 213.9375 0 L 213.9375 -2.765625 C 214.351562 -2.765625 214.96875 -3.070312 215.78125 -3.6875 C 216.601562 -4.300781 217.375 -5.425781 218.09375 -7.0625 C 218.8125 -8.707031 219.476562 -11.117188 220.09375 -14.296875 C 220.707031 -17.472656 221.015625 -21.519531 221.015625 -26.4375 L 221.015625 -209.328125 L 128.796875 -18.140625 L 137.40625 0 L 113.125 0 L 23.671875 -185.96875 L 23.671875 -50.40625 C 23.671875 -43.238281 24.078125 -36.734375 24.890625 -30.890625 C 25.710938 -25.046875 26.6875 -20.023438 27.8125 -15.828125 C 28.945312 -11.628906 30.175781 -8.398438 31.5 -6.140625 C 32.832031 -3.890625 34.113281 -2.765625 35.34375 -2.765625 L 35.34375 0 L 9.21875 0 L 9.21875 -2.765625 C 10.445312 -2.765625 11.726562 -3.890625 13.0625 -6.140625 C 14.394531 -8.398438 15.625 -11.628906 16.75 -15.828125 C 17.875 -20.023438 18.847656 -25.046875 19.671875 -30.890625 C 20.492188 -36.734375 20.90625 -43.238281 20.90625 -50.40625 L 20.90625 -191.5 L 9.21875 -215.78125 L 33.5 -215.78125 L 127.265625 -21.203125 L 221.015625 -215.78125 Z M 250.21875 -215.78125 "/></g></g></g><g fill="#ffffff" fill-opacity="1"><g transform="translate(426.274768, 559.557537)"><g><path d="M 13.21875 -80.234375 C 9.320312 -94.773438 8.398438 -109.21875 10.453125 -123.5625 C 12.503906 -137.914062 17.007812 -151.132812 23.96875 -163.21875 C 30.9375 -175.3125 40.109375 -185.816406 51.484375 -194.734375 C 62.859375 -203.648438 75.820312 -210.050781 90.375 -213.9375 C 100.820312 -216.8125 111.269531 -218.039062 121.71875 -217.625 C 132.175781 -217.21875 142.21875 -215.476562 151.84375 -212.40625 C 161.476562 -209.332031 170.546875 -204.976562 179.046875 -199.34375 C 187.554688 -193.707031 195.085938 -186.992188 201.640625 -179.203125 L 194.578125 -152.15625 L 191.8125 -152.15625 C 187.09375 -161.582031 181.25 -170.546875 174.28125 -179.046875 C 167.320312 -187.554688 159.535156 -194.679688 150.921875 -200.421875 C 142.316406 -206.160156 132.941406 -210.15625 122.796875 -212.40625 C 112.660156 -214.65625 102.054688 -214.347656 90.984375 -211.484375 C 77.660156 -208.003906 66.695312 -201.753906 58.09375 -192.734375 C 49.488281 -183.710938 42.929688 -173.3125 38.421875 -161.53125 C 33.910156 -149.75 31.398438 -137.195312 30.890625 -123.875 C 30.378906 -110.550781 31.765625 -97.945312 35.046875 -86.0625 C 39.554688 -68.851562 46.726562 -54.507812 56.5625 -43.03125 C 66.394531 -31.5625 77.40625 -22.851562 89.59375 -16.90625 C 101.789062 -10.957031 114.5 -7.726562 127.71875 -7.21875 C 140.9375 -6.707031 153.382812 -8.910156 165.0625 -13.828125 C 176.75 -18.742188 186.945312 -26.273438 195.65625 -36.421875 C 204.363281 -46.566406 210.253906 -59.222656 213.328125 -74.390625 L 215.78125 -73.78125 C 212.507812 -57.175781 205.898438 -43.289062 195.953125 -32.125 C 186.015625 -20.957031 174.332031 -12.65625 160.90625 -7.21875 C 147.488281 -1.789062 133.144531 0.816406 117.875 0.609375 C 102.613281 0.410156 88.015625 -2.707031 74.078125 -8.75 C 60.140625 -14.800781 47.6875 -23.769531 36.71875 -35.65625 C 25.757812 -47.539062 17.925781 -62.398438 13.21875 -80.234375 Z M 13.21875 -80.234375 "/></g></g></g><path stroke-linecap="butt" transform="matrix(0.750394, 0, 0, 0.75, 181.790678, 610.380805)" fill="none" stroke-linejoin="miter" d="M -0.00215227 2.997468 L 623.680209 2.997468 " stroke="#ffffff" stroke-width="6" stroke-opacity="1" stroke-miterlimit="4"/></svg>