<svg xmlns="http://www.w3.org/2000/svg" xmlns:xlink="http://www.w3.org/1999/xlink" width="100" zoomAndPan="magnify" viewBox="0 0 75 37.5" height="50" preserveAspectRatio="xMidYMid meet" version="1.0"><defs><g/><clipPath id="5846d20b54"><path d="M 6.730469 27 L 69.644531 27 L 69.644531 34.277344 L 6.730469 34.277344 Z M 6.730469 27 " clip-rule="nonzero"/></clipPath></defs><g fill="#ffffff" fill-opacity="1"><g transform="translate(5.342824, 25.771655)"><g><path d="M 2.4375 -0.03125 L 11.6875 -22.703125 L 20.9375 -0.03125 L 17.578125 -0.03125 L 16.890625 -1.828125 L 6.53125 -1.828125 L 5.8125 -0.03125 Z M 7.640625 -4.703125 L 15.75 -4.703125 L 11.6875 -15.09375 Z M 7.640625 -4.703125 "/></g></g></g><g fill="#ffffff" fill-opacity="1"><g transform="translate(28.721046, 25.771655)"><g><path d="M 18.03125 -12.40625 C 17.75 -11.476562 17.320312 -10.640625 16.75 -9.890625 C 16.1875 -9.148438 15.492188 -8.523438 14.671875 -8.015625 C 14.628906 -7.972656 14.578125 -7.941406 14.515625 -7.921875 C 14.453125 -7.898438 14.398438 -7.867188 14.359375 -7.828125 L 18.34375 0.03125 L 14.84375 0.03125 L 11.359375 -6.8125 C 11.109375 -6.769531 10.859375 -6.738281 10.609375 -6.71875 C 10.359375 -6.695312 10.09375 -6.6875 9.8125 -6.6875 L 5.75 -6.6875 L 5.75 0.03125 L 2.4375 0.03125 L 2.4375 -22.703125 L 9.8125 -22.703125 C 10.738281 -22.703125 11.609375 -22.582031 12.421875 -22.34375 C 13.234375 -22.113281 13.984375 -21.789062 14.671875 -21.375 C 16.335938 -20.320312 17.457031 -18.847656 18.03125 -16.953125 C 18.050781 -16.847656 18.070312 -16.753906 18.09375 -16.671875 C 18.113281 -16.585938 18.144531 -16.492188 18.1875 -16.390625 L 18.1875 -16.234375 C 18.226562 -16.140625 18.253906 -16.03125 18.265625 -15.90625 C 18.273438 -15.78125 18.289062 -15.65625 18.3125 -15.53125 L 18.3125 -15.5 C 18.332031 -15.375 18.34375 -15.25 18.34375 -15.125 C 18.34375 -15 18.34375 -14.863281 18.34375 -14.71875 L 18.34375 -14.640625 C 18.34375 -14.515625 18.34375 -14.390625 18.34375 -14.265625 C 18.34375 -14.140625 18.332031 -14.015625 18.3125 -13.890625 L 18.3125 -13.828125 C 18.289062 -13.703125 18.273438 -13.582031 18.265625 -13.46875 C 18.253906 -13.351562 18.226562 -13.238281 18.1875 -13.125 L 18.1875 -13 C 18.101562 -12.769531 18.050781 -12.570312 18.03125 -12.40625 Z M 10.203125 -9.59375 C 10.890625 -9.59375 11.515625 -9.734375 12.078125 -10.015625 C 12.648438 -10.304688 13.140625 -10.6875 13.546875 -11.15625 C 13.960938 -11.632812 14.289062 -12.175781 14.53125 -12.78125 C 14.78125 -13.394531 14.90625 -14.03125 14.90625 -14.6875 C 14.90625 -15.332031 14.78125 -15.960938 14.53125 -16.578125 C 14.289062 -17.203125 13.960938 -17.742188 13.546875 -18.203125 C 13.140625 -18.671875 12.648438 -19.046875 12.078125 -19.328125 C 11.515625 -19.617188 10.890625 -19.765625 10.203125 -19.765625 L 5.78125 -19.765625 L 5.78125 -9.59375 Z M 10.203125 -9.59375 "/></g></g></g><g fill="#ffffff" fill-opacity="1"><g transform="translate(49.501694, 25.771655)"><g><path d="M 17.046875 -22.671875 L 10.609375 -13.984375 L 17.734375 -0.03125 L 14.234375 -0.03125 L 8.53125 -11.203125 L 5.71875 -7.421875 L 5.71875 -0.03125 L 2.4375 -0.03125 L 2.4375 -22.671875 L 5.71875 -22.671875 L 5.71875 -12.40625 L 13.265625 -22.671875 Z M 17.046875 -22.671875 "/></g></g></g><g clip-path="url(#5846d20b54)"><path fill="#ffffff" d="M 69.421875 30.074219 C 68.816406 29.738281 68.207031 29.402344 67.601562 29.0625 C 66.640625 28.53125 65.679688 27.996094 64.71875 27.464844 C 64.5 27.339844 64.277344 27.21875 64.054688 27.097656 C 63.65625 26.875 63.144531 27.152344 63.144531 27.625 C 63.144531 28.296875 63.144531 28.96875 63.144531 29.640625 C 63.144531 29.757812 63.144531 29.875 63.144531 29.992188 C 63.136719 29.992188 63.132812 29.992188 63.128906 29.992188 C 62.566406 29.992188 48.507812 29.992188 48.148438 29.992188 C 48.078125 29.703125 47.960938 29.429688 47.789062 29.191406 C 47.476562 28.757812 47.074219 28.445312 46.574219 28.257812 C 45.660156 27.914062 44.527344 28.21875 43.90625 28.984375 C 43.660156 29.289062 43.488281 29.625 43.390625 29.992188 C 42.777344 29.992188 41.273438 29.988281 41.136719 29.988281 C 41.066406 29.703125 40.949219 29.429688 40.777344 29.191406 C 40.464844 28.757812 40.0625 28.445312 39.5625 28.257812 C 38.648438 27.914062 37.515625 28.21875 36.894531 28.984375 C 36.648438 29.289062 36.476562 29.625 36.378906 29.992188 C 36.210938 29.992188 34.707031 29.992188 34.125 29.992188 C 34.054688 29.703125 33.9375 29.429688 33.765625 29.191406 C 33.453125 28.757812 33.050781 28.445312 32.550781 28.257812 C 31.636719 27.914062 30.503906 28.21875 29.882812 28.984375 C 29.636719 29.289062 29.464844 29.625 29.367188 29.992188 C 28.863281 29.992188 27.359375 29.988281 27.113281 29.988281 C 27.042969 29.703125 26.925781 29.429688 26.753906 29.191406 C 26.441406 28.757812 26.039062 28.445312 25.539062 28.257812 C 24.625 27.914062 23.492188 28.21875 22.871094 28.984375 C 22.625 29.289062 22.453125 29.625 22.355469 29.992188 C 21.9375 29.992188 20.433594 29.992188 20.105469 29.992188 C 20.035156 29.703125 19.914062 29.429688 19.742188 29.191406 C 19.429688 28.757812 19.03125 28.445312 18.53125 28.257812 C 17.613281 27.914062 16.480469 28.21875 15.859375 28.984375 C 15.613281 29.289062 15.441406 29.625 15.347656 29.992188 C 14.984375 29.992188 6.242188 29.992188 5.773438 29.992188 C 5.21875 29.679688 4.660156 29.375 4.105469 29.0625 C 3.144531 28.53125 2.183594 27.996094 1.222656 27.464844 C 1.003906 27.339844 0.78125 27.21875 0.558594 27.097656 C 0.28125 26.941406 -0.113281 27.019531 -0.269531 27.316406 C -0.417969 27.601562 -0.347656 27.988281 -0.0507812 28.152344 C 0.554688 28.492188 1.164062 28.828125 1.769531 29.164062 C 2.636719 29.644531 3.5 30.125 4.363281 30.605469 C 4.074219 30.765625 3.78125 30.925781 3.492188 31.085938 C 2.53125 31.621094 1.574219 32.152344 0.613281 32.6875 C 0.390625 32.808594 0.167969 32.929688 -0.0507812 33.054688 C -0.328125 33.207031 -0.441406 33.621094 -0.269531 33.890625 C -0.0859375 34.175781 0.261719 34.277344 0.558594 34.113281 C 1.167969 33.773438 1.773438 33.4375 2.382812 33.101562 C 3.34375 32.566406 4.300781 32.035156 5.261719 31.5 C 5.433594 31.40625 5.605469 31.3125 5.773438 31.214844 C 6.105469 31.214844 14.761719 31.214844 15.339844 31.214844 C 15.398438 31.449219 15.492188 31.675781 15.613281 31.878906 C 15.859375 32.289062 16.226562 32.640625 16.660156 32.839844 C 17.164062 33.074219 17.699219 33.136719 18.242188 33.03125 C 19.160156 32.847656 19.867188 32.101562 20.097656 31.214844 C 20.296875 31.214844 22.285156 31.214844 22.351562 31.214844 C 22.410156 31.449219 22.503906 31.675781 22.625 31.878906 C 22.871094 32.289062 23.238281 32.640625 23.671875 32.839844 C 24.175781 33.070312 24.710938 33.136719 25.257812 33.027344 C 26.171875 32.847656 26.878906 32.101562 27.113281 31.214844 C 27.28125 31.214844 28.78125 31.214844 29.363281 31.214844 C 29.421875 31.449219 29.515625 31.675781 29.636719 31.878906 C 29.882812 32.289062 30.253906 32.640625 30.683594 32.839844 C 31.1875 33.070312 31.722656 33.136719 32.269531 33.027344 C 33.1875 32.847656 33.890625 32.101562 34.125 31.214844 C 34.628906 31.214844 36.128906 31.21875 36.378906 31.21875 C 36.4375 31.453125 36.527344 31.675781 36.652344 31.878906 C 36.894531 32.289062 37.265625 32.640625 37.695312 32.839844 C 38.203125 33.070312 38.734375 33.136719 39.28125 33.027344 C 40.199219 32.847656 40.90625 32.101562 41.136719 31.214844 C 41.167969 31.214844 43.230469 31.214844 43.386719 31.214844 C 43.449219 31.449219 43.542969 31.675781 43.664062 31.878906 C 43.910156 32.289062 44.277344 32.640625 44.707031 32.839844 C 45.214844 33.070312 45.746094 33.136719 46.292969 33.027344 C 47.210938 32.847656 47.917969 32.101562 48.148438 31.214844 C 48.25 31.214844 63.039062 31.214844 63.148438 31.214844 C 63.148438 31.761719 63.148438 32.304688 63.148438 32.851562 C 63.148438 33.09375 63.148438 33.339844 63.148438 33.582031 C 63.148438 33.582031 63.148438 33.585938 63.148438 33.589844 C 63.148438 33.695312 63.175781 33.800781 63.230469 33.890625 C 63.246094 33.917969 63.265625 33.941406 63.285156 33.964844 C 63.292969 33.972656 63.296875 33.976562 63.300781 33.980469 C 63.304688 33.984375 63.304688 33.988281 63.308594 33.988281 C 63.417969 34.117188 63.582031 34.199219 63.753906 34.191406 C 63.78125 34.191406 63.804688 34.1875 63.828125 34.183594 C 63.910156 34.175781 63.988281 34.152344 64.0625 34.109375 C 64.667969 33.769531 65.273438 33.433594 65.882812 33.097656 C 66.84375 32.566406 67.804688 32.03125 68.765625 31.5 C 68.984375 31.375 69.207031 31.253906 69.425781 31.128906 C 69.816406 30.914062 69.816406 30.292969 69.421875 30.074219 Z M 25.890625 31.085938 C 25.847656 31.167969 25.804688 31.253906 25.753906 31.328125 C 25.746094 31.34375 25.734375 31.359375 25.722656 31.375 C 25.6875 31.414062 25.652344 31.453125 25.617188 31.492188 C 25.578125 31.53125 25.539062 31.566406 25.5 31.597656 C 25.484375 31.609375 25.46875 31.621094 25.453125 31.632812 C 25.375 31.6875 25.296875 31.730469 25.210938 31.769531 C 25.113281 31.804688 25.007812 31.835938 24.902344 31.855469 C 24.792969 31.863281 24.679688 31.863281 24.566406 31.855469 C 24.460938 31.835938 24.359375 31.804688 24.257812 31.769531 C 24.175781 31.730469 24.09375 31.6875 24.015625 31.632812 C 24 31.625 23.984375 31.613281 23.972656 31.601562 C 23.933594 31.566406 23.894531 31.53125 23.855469 31.496094 C 23.816406 31.457031 23.785156 31.417969 23.75 31.378906 C 23.738281 31.363281 23.726562 31.347656 23.714844 31.332031 C 23.664062 31.253906 23.621094 31.171875 23.582031 31.085938 C 23.542969 30.984375 23.515625 30.882812 23.496094 30.777344 C 23.488281 30.660156 23.488281 30.550781 23.496094 30.4375 C 23.515625 30.328125 23.542969 30.226562 23.582031 30.125 C 23.621094 30.039062 23.664062 29.957031 23.714844 29.882812 C 23.726562 29.867188 23.734375 29.851562 23.746094 29.835938 C 23.78125 29.796875 23.816406 29.753906 23.855469 29.71875 C 23.890625 29.679688 23.929688 29.644531 23.96875 29.609375 C 23.984375 29.601562 24 29.589844 24.015625 29.578125 C 24.09375 29.523438 24.175781 29.480469 24.257812 29.441406 C 24.359375 29.402344 24.460938 29.375 24.566406 29.355469 C 24.679688 29.347656 24.792969 29.347656 24.902344 29.355469 C 25.007812 29.375 25.113281 29.402344 25.210938 29.441406 C 25.296875 29.480469 25.378906 29.523438 25.453125 29.578125 C 25.46875 29.585938 25.484375 29.597656 25.5 29.605469 C 25.539062 29.644531 25.578125 29.675781 25.617188 29.714844 C 25.652344 29.753906 25.6875 29.792969 25.722656 29.832031 C 25.734375 29.847656 25.746094 29.863281 25.757812 29.878906 C 25.808594 29.957031 25.851562 30.039062 25.890625 30.125 C 25.925781 30.226562 25.953125 30.328125 25.972656 30.4375 C 25.976562 30.484375 25.980469 30.535156 25.980469 30.582031 C 25.980469 30.589844 25.980469 30.597656 25.980469 30.605469 C 25.980469 30.660156 25.976562 30.71875 25.972656 30.773438 C 25.953125 30.878906 25.925781 30.984375 25.890625 31.085938 Z M 39.996094 30.773438 C 39.976562 30.878906 39.949219 30.984375 39.914062 31.085938 C 39.875 31.167969 39.832031 31.253906 39.777344 31.328125 C 39.769531 31.34375 39.757812 31.359375 39.746094 31.375 C 39.710938 31.414062 39.675781 31.453125 39.640625 31.492188 C 39.601562 31.53125 39.566406 31.566406 39.523438 31.597656 C 39.507812 31.609375 39.492188 31.621094 39.476562 31.632812 C 39.398438 31.6875 39.320312 31.730469 39.234375 31.769531 C 39.136719 31.804688 39.03125 31.835938 38.929688 31.855469 C 38.816406 31.863281 38.703125 31.863281 38.589844 31.855469 C 38.484375 31.835938 38.382812 31.804688 38.285156 31.769531 C 38.199219 31.730469 38.117188 31.6875 38.042969 31.632812 C 38.027344 31.625 38.011719 31.613281 37.996094 31.601562 C 37.957031 31.566406 37.917969 31.53125 37.878906 31.496094 C 37.84375 31.457031 37.808594 31.417969 37.773438 31.378906 C 37.761719 31.363281 37.75 31.347656 37.742188 31.332031 C 37.6875 31.253906 37.644531 31.171875 37.605469 31.085938 C 37.570312 30.984375 37.542969 30.882812 37.523438 30.777344 C 37.511719 30.660156 37.511719 30.550781 37.523438 30.4375 C 37.542969 30.328125 37.570312 30.226562 37.605469 30.125 C 37.644531 30.039062 37.6875 29.957031 37.742188 29.882812 C 37.75 29.867188 37.761719 29.851562 37.769531 29.835938 C 37.804688 29.796875 37.839844 29.753906 37.878906 29.71875 C 37.914062 29.679688 37.953125 29.644531 37.992188 29.609375 C 38.007812 29.601562 38.023438 29.589844 38.039062 29.578125 C 38.117188 29.523438 38.199219 29.480469 38.28125 29.441406 C 38.382812 29.402344 38.484375 29.375 38.589844 29.355469 C 38.703125 29.347656 38.8125 29.347656 38.925781 29.355469 C 39.03125 29.375 39.132812 29.402344 39.234375 29.441406 C 39.316406 29.480469 39.398438 29.523438 39.476562 29.578125 C 39.492188 29.585938 39.507812 29.597656 39.519531 29.605469 C 39.5625 29.644531 39.601562 29.675781 39.640625 29.714844 C 39.675781 29.753906 39.710938 29.792969 39.746094 29.832031 C 39.753906 29.847656 39.765625 29.863281 39.777344 29.878906 C 39.832031 29.957031 39.875 30.039062 39.914062 30.125 C 39.949219 30.226562 39.976562 30.328125 39.996094 30.4375 C 40 30.484375 40.003906 30.535156 40.003906 30.582031 C 40.003906 30.589844 40.003906 30.597656 40.003906 30.605469 C 40.003906 30.660156 40 30.71875 39.996094 30.773438 Z M 66.988281 31.085938 C 66.113281 31.574219 65.234375 32.0625 64.355469 32.546875 C 64.355469 32.21875 64.355469 31.894531 64.355469 31.566406 C 64.355469 30.597656 64.355469 29.628906 64.355469 28.660156 C 64.660156 28.828125 64.960938 28.996094 65.265625 29.167969 C 66.128906 29.644531 66.992188 30.125 67.859375 30.605469 C 67.570312 30.765625 67.277344 30.925781 66.988281 31.085938 Z M 66.988281 31.085938 " fill-opacity="1" fill-rule="nonzero"/></g></svg>